#N canvas 414 204 1256 500 10;
#X obj 92 35 bng 50 250 50 0 empty empty start 53 7 0 10 -4034 -1 -1
;
#X obj 24 35 loadbang;
#X obj 82 315 r oscmsg;
#X obj 82 337 packOSC;
#X obj 22 391 udpsend;
#X obj 192 35 bng 50 250 50 0 empty empty stop 53 7 0 10 -258113 -1
-1;
#X msg 62 290 disconnect;
#X obj 350 110 vsl 15 128 -5 5 0 0 empty empty empty 0 -9 0 10 -4034
-1 -1 6350 1;
#X msg 344 57 0;
#X obj 330 361 pack \$1 \$2 \$3;
#X obj 330 405 s oscmsg;
#X obj 370 110 vsl 15 128 -5 5 0 0 empty empty empty 0 -9 0 10 -4032
-1 -1 6350 1;
#X obj 330 271 t f b b;
#X obj 390 271 t b f b;
#X obj 450 271 t b b f;
#X obj 330 110 vsl 15 128 -5 5 0 0 empty empty empty 0 -9 0 10 -258113
-1 -1 6350 1;
#X obj 330 322 f;
#X obj 390 322 f;
#X obj 450 322 f;
#X obj 22 413 sel 1;
#X msg 22 264 connect 127.0.0.1 14000;
#X msg 330 383 send /cube/pos \$1 \$2 \$3;
#X obj 620 110 vsl 15 128 0 1 0 0 empty empty empty 0 -9 0 10 -4034
-1 -1 6350 1;
#X obj 600 361 pack \$1 \$2 \$3;
#X obj 600 405 s oscmsg;
#X obj 640 110 vsl 15 128 0 1 0 0 empty empty empty 0 -9 0 10 -4032
-1 -1 6350 1;
#X obj 600 271 t f b b;
#X obj 660 271 t b f b;
#X obj 720 271 t b b f;
#X obj 600 110 vsl 15 128 0 1 0 0 empty empty empty 0 -9 0 10 -258113
-1 -1 6350 1;
#X obj 600 322 f;
#X obj 660 322 f;
#X obj 720 322 f;
#X msg 600 383 send /cube/col \$1 \$2 \$3;
#X msg 614 57 0.5;
#X obj 834 405 s oscmsg;
#X msg 834 383 send /cube/visible \$1;
#X text 397 114 XYZ position;
#X text 667 114 RGB of material;
#X msg 834 57 1;
#X obj 834 120 tgl 15 0 empty empty empty 17 7 0 10 -262144 -1 -1 1
1;
#X obj 92 90 s init;
#X obj 344 35 r init;
#X obj 614 35 r init;
#X obj 834 35 r init;
#X obj 22 240 r init;
#X obj 1050 110 vsl 15 128 0 1 0 0 empty empty empty 0 -9 0 10 -4034
-1 -1 6350 1;
#X obj 1030 421 pack \$1 \$2 \$3;
#X obj 1030 465 s oscmsg;
#X obj 1070 110 vsl 15 128 0 1 0 0 empty empty empty 0 -9 0 10 -4032
-1 -1 6350 1;
#X obj 1030 271 t f b b;
#X obj 1090 271 t b f b;
#X obj 1150 271 t b b f;
#X obj 1030 110 vsl 15 128 0 1 0 0 empty empty empty 0 -9 0 10 -258113
-1 -1 6350 1;
#X obj 1030 322 f;
#X obj 1090 322 f;
#X obj 1150 322 f;
#X msg 1044 57 0.5;
#X text 1097 114 RGB of material;
#X obj 1044 35 r init;
#X msg 1030 443 send /sky/horizon \$1 \$2 \$3;
#X obj 1030 374 line;
#X obj 1090 374 line;
#X obj 1150 374 line;
#X msg 1030 344 \$1 200;
#X msg 1090 344 \$1 200;
#X msg 1150 344 \$1 200;
#X connect 0 0 41 0;
#X connect 1 0 41 0;
#X connect 2 0 3 0;
#X connect 3 0 4 0;
#X connect 4 0 19 0;
#X connect 5 0 6 0;
#X connect 6 0 4 0;
#X connect 7 0 13 0;
#X connect 8 0 7 0;
#X connect 8 0 11 0;
#X connect 8 0 15 0;
#X connect 9 0 21 0;
#X connect 11 0 14 0;
#X connect 12 0 16 0;
#X connect 12 1 17 0;
#X connect 12 2 18 0;
#X connect 13 0 16 0;
#X connect 13 1 17 0;
#X connect 13 2 18 0;
#X connect 14 0 16 0;
#X connect 14 1 17 0;
#X connect 14 2 18 0;
#X connect 15 0 12 0;
#X connect 16 0 9 0;
#X connect 17 0 9 1;
#X connect 18 0 9 2;
#X connect 20 0 4 0;
#X connect 21 0 10 0;
#X connect 22 0 27 0;
#X connect 23 0 33 0;
#X connect 25 0 28 0;
#X connect 26 0 30 0;
#X connect 26 1 31 0;
#X connect 26 2 32 0;
#X connect 27 0 30 0;
#X connect 27 1 31 0;
#X connect 27 2 32 0;
#X connect 28 0 30 0;
#X connect 28 1 31 0;
#X connect 28 2 32 0;
#X connect 29 0 26 0;
#X connect 30 0 23 0;
#X connect 31 0 23 1;
#X connect 32 0 23 2;
#X connect 33 0 24 0;
#X connect 34 0 22 0;
#X connect 34 0 25 0;
#X connect 34 0 29 0;
#X connect 36 0 35 0;
#X connect 39 0 40 0;
#X connect 40 0 36 0;
#X connect 42 0 8 0;
#X connect 43 0 34 0;
#X connect 44 0 39 0;
#X connect 45 0 20 0;
#X connect 46 0 51 0;
#X connect 47 0 60 0;
#X connect 49 0 52 0;
#X connect 50 0 54 0;
#X connect 50 1 55 0;
#X connect 50 2 56 0;
#X connect 51 0 54 0;
#X connect 51 1 55 0;
#X connect 51 2 56 0;
#X connect 52 0 54 0;
#X connect 52 1 55 0;
#X connect 52 2 56 0;
#X connect 53 0 50 0;
#X connect 54 0 64 0;
#X connect 55 0 65 0;
#X connect 56 0 66 0;
#X connect 57 0 46 0;
#X connect 57 0 49 0;
#X connect 57 0 53 0;
#X connect 59 0 57 0;
#X connect 60 0 48 0;
#X connect 61 0 47 0;
#X connect 62 0 47 1;
#X connect 63 0 47 2;
#X connect 64 0 61 0;
#X connect 65 0 62 0;
#X connect 66 0 63 0;
